<svg width="22" height="22" viewBox="0 0 22 22" fill="none" xmlns="http://www.w3.org/2000/svg">
<path fill-rule="evenodd" clip-rule="evenodd" d="M12.2929 2.63608L9.81802 5.11096L4.86827 4.40385L0.979186 8.29294L3.80761 11.1214C3.02656 11.9024 3.02657 13.1687 3.80761 13.9498L5.22183 15.364L4.51472 16.0711L5.92893 17.4853L6.63604 16.7782L8.05025 18.1924C8.8313 18.9735 10.0976 18.9735 10.8787 18.1924L13.7071 21.0209L17.5962 17.1318L16.8891 12.182L19.364 9.70715C21.5956 7.47547 22.9606 3.40431 20.7782 1.22187C18.5957 -0.960573 14.5246 0.404402 12.2929 2.63608ZM8.05025 15.364L9.46447 16.7782L16.5355 9.70715L17.9497 8.29294C19.5003 6.74242 20.4971 3.76924 19.364 2.63608C18.2308 1.50293 15.2576 2.49978 13.7071 4.0503L12.2929 5.46451L5.22183 12.5356L6.63604 13.9498L10.8787 9.70715L12.2929 11.1214L8.05025 15.364ZM5.57538 6.52517L8.05025 6.87873L5.22183 9.70715L3.80761 8.29294L5.57538 6.52517ZM12.2929 16.7782L15.1213 13.9498L15.4749 16.4247L13.7071 18.1924L12.2929 16.7782ZM13.7071 8.29294C12.9261 7.51189 12.9261 6.24556 13.7071 5.46451C14.4882 4.68346 15.7545 4.68346 16.5355 5.46451C17.3166 6.24556 17.3166 7.51189 16.5355 8.29294C15.7545 9.07399 14.4882 9.07399 13.7071 8.29294Z" fill="#FF0101"/>
</svg>
