<svg width="66" height="66" viewBox="0 0 66 66" fill="none" xmlns="http://www.w3.org/2000/svg">
<path fill-rule="evenodd" clip-rule="evenodd" d="M33 66C14.7746 66 0 51.2254 0 33C0 14.7746 14.7746 0 33 0C51.2254 0 66 14.7746 66 33C66 51.2254 51.2254 66 33 66ZM33 60C47.9117 60 60 47.9117 60 33C60 18.0883 47.9117 6 33 6C18.0883 6 6 18.0883 6 33C6 47.9117 18.0883 60 33 60ZM21.8787 47.1213L26.1214 42.8787L16.2427 33L26.1214 23.1213L21.8787 18.8787L7.75742 33L21.8787 47.1213ZM39.8786 23.1213L44.1212 18.8787L58.2425 33L44.1212 47.1213L39.8786 42.8787L49.7573 33L39.8786 23.1213ZM27.0407 50.5067L32.9591 51.4931L38.9591 15.4931L33.0407 14.5067L27.0407 50.5067Z" fill="#FF0101"/>
</svg>
