<svg width="60" height="60" viewBox="0 0 60 60" fill="none" xmlns="http://www.w3.org/2000/svg">
<path fill-rule="evenodd" clip-rule="evenodd" d="M54 0H6C2.68629 0 0 2.68629 0 6V18V42V54C0 57.3137 2.68629 60 6 60H54C57.3137 60 60 57.3137 60 54V42V18V6C60 2.68629 57.3137 0 54 0ZM6 54V42H54V54H6ZM6 18H54V6H6V18ZM6 36V24H54V36H6ZM18 27H39V33H18V27ZM48 12C48 13.6569 46.6569 15 45 15C43.3431 15 42 13.6569 42 12C42 10.3431 43.3431 9 45 9C46.6569 9 48 10.3431 48 12ZM45 33C46.6569 33 48 31.6569 48 30C48 28.3431 46.6569 27 45 27C43.3431 27 42 28.3431 42 30C42 31.6569 43.3431 33 45 33ZM48 48C48 49.6569 46.6569 51 45 51C43.3431 51 42 49.6569 42 48C42 46.3431 43.3431 45 45 45C46.6569 45 48 46.3431 48 48Z" fill="#FF0101"/>
</svg>
