<svg width="63" height="55" viewBox="0 0 63 55" fill="none" xmlns="http://www.w3.org/2000/svg">
<path fill-rule="evenodd" clip-rule="evenodd" d="M7.70825 18.2918L14.3417 14.9751L19.2391 24.7698L13.1905 42.9156C13.801 43.3653 14.4457 43.8011 15.1195 44.2189C19.2035 36.8667 22.6913 34 29.5 34C37.0649 34 43.5244 38.645 45.4302 45.0653C46.4279 44.5176 47.3755 43.9292 48.2588 43.311C47.1134 41.8759 46.1771 40.3231 45.3892 38.6194C44.5386 36.7803 44.3223 36.1377 43.0922 32.1586C41.2816 26.3016 39.9599 25 34.0001 25H31.0001C26.3432 25 22.0001 20.6569 22.0001 16C22.0001 12.3771 19.2163 9.61828 12.9553 7.7977L7.70825 18.2918ZM12.761 25.2302L8.45261 38.1555C7.5226 36.7472 7 35.3322 7 34H1C1 44.4242 16.5476 55 31 55C45.4524 55 61 44.4242 61 34H55C55 35.6864 54.1625 37.5057 52.7212 39.2758C51.9872 38.309 51.3719 37.2617 50.8349 36.1007C50.1451 34.6091 49.9592 34.0569 48.8246 30.3866C48.323 28.7643 47.7894 27.3357 47.1847 26.0882C51.2576 24.264 55.1916 24.7333 59.3359 27.4961L62.6641 22.5038C56.3306 18.2815 49.7479 17.8753 43.3665 21.2851C41.1482 19.7082 38.1902 19 34.0001 19H31.0001C29.6569 19 28.0001 17.3432 28.0001 16C28.0001 8.24626 21.824 3.30539 10.5884 1.05828L7.00005 0.340607V6.29181L0.34977 19.5924L6.40769 25.6503L11.6584 23.0249L12.761 25.2302ZM20.4944 46.8972C23.8268 48.1977 27.4588 49 31 49C33.9631 49 36.9899 48.4382 39.8515 47.4929C39.0164 43.2963 34.7571 40 29.5 40C25.5956 40 23.4408 41.6577 20.4944 46.8972Z" fill="#FF0101"/>
</svg>
